HIERARCHY
ROOT Hips
{
	OFFSET 0.00000 0.00000 0.00000
	CHANNELS 6 Xposition Yposition Zposition Zrotation Yrotation Xrotation 
	JOINT LHipJoint
	{
		OFFSET 0 0 0
		CHANNELS 3 Zrotation Yrotation Xrotation
		JOINT LeftUpLeg
		{
			OFFSET 1.36337 -1.57426 1.11036
			CHANNELS 3 Zrotation Yrotation Xrotation
			JOINT LeftLeg
			{
				OFFSET 2.38468 -6.55187 0.00000
				CHANNELS 3 Zrotation Yrotation Xrotation
				JOINT LeftFoot
				{
					OFFSET 2.37166 -6.51609 0.00000
					CHANNELS 3 Zrotation Yrotation Xrotation
					JOINT LeftToeBase
					{
						OFFSET 0.29078 -0.79891 2.01393
						CHANNELS 3 Zrotation Yrotation Xrotation
						End Site
						{
							OFFSET 0.00000 -0.00000 1.07924
						}
					}
				}
			}
		}
	}
	JOINT RHipJoint
	{
		OFFSET 0 0 0
		CHANNELS 3 Zrotation Yrotation Xrotation
		JOINT RightUpLeg
		{
			OFFSET -1.36349 -1.57426 1.11036
			CHANNELS 3 Zrotation Yrotation Xrotation
			JOINT RightLeg
			{
				OFFSET -2.29562 -6.30717 0.00000
				CHANNELS 3 Zrotation Yrotation Xrotation
				JOINT RightFoot
				{
					OFFSET -2.40985 -6.62100 0.00000
					CHANNELS 3 Zrotation Yrotation Xrotation
					JOINT RightToeBase
					{
						OFFSET -0.23197 -0.63733 1.92232
						CHANNELS 3 Zrotation Yrotation Xrotation
						End Site
						{
							OFFSET -0.00000 -0.00000 1.01562
						}
					}
				}
			}
		}
	}
	JOINT LowerBack
	{
		OFFSET 0 0 0
		CHANNELS 3 Zrotation Yrotation Xrotation
		JOINT Spine
		{
			OFFSET -0.08565 2.03602 -0.24562
			CHANNELS 3 Zrotation Yrotation Xrotation
			JOINT Spine1
			{
				OFFSET -0.00036 2.05693 0.00216
				CHANNELS 3 Zrotation Yrotation Xrotation
				JOINT Neck
				{
					OFFSET 0 0 0
					CHANNELS 3 Zrotation Yrotation Xrotation
					JOINT Neck1
					{
						OFFSET -0.03664 1.69515 0.31789
						CHANNELS 3 Zrotation Yrotation Xrotation
						JOINT Head
						{
							OFFSET 0.00932 1.70181 -0.46013
							CHANNELS 3 Zrotation Yrotation Xrotation
							End Site
							{
								OFFSET 0.01243 1.77620 -0.19377
							}
						}
					}
				}
				JOINT LeftShoulder
				{
					OFFSET 0 0 0
					CHANNELS 3 Zrotation Yrotation Xrotation
					JOINT LeftArm
					{
						OFFSET 3.74344 0.81315 -0.36647
						CHANNELS 3 Zrotation Yrotation Xrotation
						JOINT LeftForeArm
						{
							OFFSET 4.97185 -0.00000 -0.00000
							CHANNELS 3 Zrotation Yrotation Xrotation
							JOINT LeftHand
							{
								OFFSET 3.35811 -0.00000 0.00000
								CHANNELS 3 Zrotation Yrotation Xrotation
								JOINT LeftFingerBase
								{
									OFFSET 0 0 0
									CHANNELS 3 Zrotation Yrotation Xrotation
									JOINT LeftHandIndex1
									{
										OFFSET 0.62278 -0.00000 0.00000
										CHANNELS 3 Zrotation Yrotation Xrotation
										End Site
										{
											OFFSET 0.50210 -0.00000 0.00000
										}
									}
								}
								JOINT LThumb
								{
									OFFSET 0 0 0
									CHANNELS 3 Zrotation Yrotation Xrotation
									End Site
									{
										OFFSET 0.50976 -0.00000 0.50976
									}
								}
							}
						}
					}
				}
				JOINT RightShoulder
				{
					OFFSET 0 0 0
					CHANNELS 3 Zrotation Yrotation Xrotation
					JOINT RightArm
					{
						OFFSET -3.75385 0.50666 -0.06525
						CHANNELS 3 Zrotation Yrotation Xrotation
						JOINT RightForeArm
						{
							OFFSET -4.96493 -0.00000 -0.00000
							CHANNELS 3 Zrotation Yrotation Xrotation
							JOINT RightHand
							{
								OFFSET -3.34929 -0.00000 0.00000
								CHANNELS 3 Zrotation Yrotation Xrotation
								JOINT RightFingerBase
								{
									OFFSET 0 0 0
									CHANNELS 3 Zrotation Yrotation Xrotation
									JOINT RightHandIndex1
									{
										OFFSET -0.63804 -0.00000 0.00000
										CHANNELS 3 Zrotation Yrotation Xrotation
										End Site
										{
											OFFSET -0.51441 -0.00000 0.00000
										}
									}
								}
								JOINT RThumb
								{
									OFFSET 0 0 0
									CHANNELS 3 Zrotation Yrotation Xrotation
									End Site
									{
										OFFSET -0.52226 -0.00000 0.52226
									}
								}
							}
						}
					}
				}
			}
		}
	}
}
MOTION
Frames: 9
Frame Time: .0083333
14.2313 15.0717 -4.1817 -546.1760 214.5080 -181.0870 0.0000 0.0000 0.0000 -12.0115 -15.5417 -34.2366 10.8079 17.8398 62.1562 1.1674 -7.3506 -19.3027 0.2542 3.2441 8.9590 0.0000 0.0000 0.0000 6.8995 -25.5566 -26.0217 -17.7991 -19.8835 83.5529 0.0668 -7.8243 -9.6010 -0.3217 3.6458 -10.0823 4.5283 -0.7919 66.4316 -6.3284 -0.1502 7.2967 -9.1908 -0.2485 -13.6308 6.7550 11.5842 -26.5428 -18.4306 19.1285 21.9847 -4.3551 6.4844 14.8173 -0.0000 -0.0000 0.0000 -62.1837 -26.4618 46.4526 54.5589 -54.6765 -29.8558 -0.0000 0.0000 -24.9610 31.5405 -13.2139 -7.9865 -7.1250 0.0000 -0.0000 2.8561 14.5901 -2.0472 -0.0000 -0.0000 0.0000 76.7335 24.1095 44.9102 -48.1098 52.2041 -24.6725 0.0000 -0.0000 -22.2046 -20.6566 -22.1896 8.1035 7.1250 -0.0000 -0.0000 8.5844 -53.3295 -1.7689
14.1407 15.1080 -4.1238 -546.2470 213.6430 -180.9670 0.0000 0.0000 0.0000 -11.9758 -15.9882 -33.6838 10.7135 17.7920 61.8477 1.1789 -7.8071 -19.4115 0.3140 3.6023 9.9604 0.0000 0.0000 0.0000 7.3063 -23.9923 -27.4614 -17.8428 -19.8881 83.6816 0.0006 -7.3880 -10.5230 -0.3454 3.7763 -10.4480 4.3189 -0.6611 66.4076 -6.2556 -0.1085 7.2111 -9.0395 -0.2274 -13.7286 7.0123 11.4981 -26.3924 -18.5089 18.9197 21.9365 -4.4841 6.4219 14.7724 0.0000 -0.0000 0.0000 -62.3068 -26.4848 46.2013 54.3745 -54.6143 -29.7053 -0.0000 0.0000 -24.6655 30.3348 -13.5914 -7.8298 -7.1250 0.0000 -0.0000 1.9982 14.3381 -1.4420 0.0000 -0.0000 0.0000 76.6178 24.2629 45.1433 -48.8862 52.5363 -25.2873 0.0000 -0.0000 -22.1556 -20.8553 -22.1718 8.1814 7.1250 -0.0000 -0.0000 8.3764 -53.3481 -1.7294
14.0474 15.1487 -4.0709 -546.2400 212.8440 -180.9310 0.0000 0.0000 0.0000 -11.9910 -16.1923 -33.1361 10.6246 17.7465 61.5565 1.1845 -8.3439 -19.4849 0.3523 3.8134 10.5523 0.0000 0.0000 0.0000 7.7221 -22.2577 -28.7903 -17.6891 -19.8715 83.2293 -0.1010 -6.6299 -11.6402 -0.4309 4.2125 -11.6752 3.9549 -0.4978 66.4726 -6.1723 -0.1363 7.1123 -8.7758 -0.2331 -13.8530 7.1975 11.5894 -26.1061 -18.5791 18.9464 21.6472 -4.5305 6.4789 14.6221 -0.0000 -0.0000 0.0000 -62.4499 -26.3753 45.8459 54.5115 -54.6606 -29.8171 -0.0000 0.0000 -24.8058 29.7836 -13.5803 -7.6539 -7.1250 0.0000 -0.0000 1.6259 14.4309 -1.1699 -0.0000 -0.0000 0.0000 76.6313 24.6002 45.4323 -49.4301 52.7630 -25.7197 0.0000 -0.0000 -22.0913 -20.3655 -21.8034 7.8503 7.1250 -0.0000 -0.0000 8.7367 -52.8790 -1.7041
13.9491 15.1742 -4.0219 -546.1050 212.0980 -180.8720 0.0000 0.0000 0.0000 -12.0456 -16.2530 -32.8430 10.5635 17.7148 61.3558 1.1794 -8.8474 -19.4800 0.3672 3.8924 10.7741 0.0000 0.0000 0.0000 8.0353 -20.5257 -30.2851 -17.3933 -19.8363 82.3584 -0.2120 -5.7771 -12.7041 -0.5071 4.5649 -12.6717 3.5502 -0.2526 66.3619 -6.0372 -0.0918 7.0810 -8.4638 -0.2058 -13.8855 7.1746 11.5064 -26.2598 -18.5072 18.8198 21.6980 -4.5274 6.4191 14.6405 0.0000 -0.0000 0.0000 -62.7641 -26.2845 45.6258 54.8645 -54.7785 -30.1052 -0.0000 0.0000 -24.8650 29.2664 -13.3745 -7.3860 -7.1250 0.0000 -0.0000 1.2951 14.7366 -0.9233 0.0000 -0.0000 0.0000 76.5780 24.9615 45.5473 -49.9238 52.9647 -26.1133 0.0000 -0.0000 -22.0154 -19.6661 -21.5297 7.4720 7.1250 -0.0000 -0.0000 9.3382 -52.4724 -1.7297
13.8501 15.1944 -3.9760 -546.0460 211.2990 -180.6960 0.0000 0.0000 0.0000 -11.9641 -16.3361 -32.7273 10.5262 17.6953 61.2329 1.1699 -9.3548 -19.4513 0.3908 4.0144 11.1172 0.0000 0.0000 0.0000 8.4526 -18.7321 -31.8079 -16.9413 -19.7742 81.0247 -0.3024 -5.4212 -13.7977 -0.4991 4.5290 -12.5698 3.0074 0.0658 66.0427 -5.6405 -0.0038 7.1857 -7.7934 -0.1619 -13.7376 6.6094 11.4347 -26.6679 -18.2936 18.8706 21.7362 -4.3264 6.3907 14.6531 0.0000 -0.0000 0.0000 -63.3603 -26.2311 45.2334 55.5447 -55.0008 -30.6617 -0.0000 0.0000 -24.9891 29.0429 -12.9674 -7.1027 -7.1250 0.0000 -0.0000 1.1817 15.2260 -0.8300 0.0000 -0.0000 0.0000 76.1346 25.5702 45.8245 -50.5224 53.2040 -26.5919 0.0000 -0.0000 -22.0544 -19.5996 -21.5927 7.4654 7.1250 -0.0000 -0.0000 9.4278 -52.5248 -1.7587
13.7483 15.2146 -3.9318 -546.1040 210.3450 -180.4410 0.0000 0.0000 0.0000 -11.7519 -16.6288 -32.6294 10.5069 17.6852 61.1697 1.1639 -9.8706 -19.4628 0.4011 4.0659 11.2621 0.0000 0.0000 0.0000 8.9481 -17.0232 -33.1773 -16.3381 -19.6754 79.2375 -0.4056 -5.1389 -15.0201 -0.5296 4.6634 -12.9510 2.4169 0.2925 65.6514 -5.0953 -0.0121 7.3450 -6.8798 -0.1629 -13.5309 6.1104 11.4933 -27.1327 -18.3419 19.1534 21.6747 -4.1795 6.4354 14.7213 -0.0000 0.0000 0.0000 -64.0799 -26.0798 44.5251 56.2467 -55.2239 -31.2375 -0.0000 0.0000 -25.1553 29.1151 -12.8008 -7.0345 -7.1250 0.0000 -0.0000 1.2467 15.4040 -0.8710 -0.0000 0.0000 0.0000 75.3692 26.2472 46.4381 -51.4249 53.5543 -27.3162 0.0000 -0.0000 -22.3678 -19.7235 -21.6659 7.5399 7.1250 -0.0000 -0.0000 9.3308 -52.6219 -1.7626
13.6330 15.2316 -3.8934 -546.3770 209.5790 -180.0510 0.0000 0.0000 0.0000 -11.2378 -16.7225 -32.6381 10.5094 17.6865 61.1777 1.1553 -10.4710 -19.4770 0.3826 3.9722 10.9984 0.0000 0.0000 0.0000 9.6786 -14.9951 -34.3976 -15.6151 -19.5326 77.0827 -0.5110 -4.7556 -16.0827 -0.6165 5.0251 -13.9803 2.1060 0.4756 65.3710 -4.7965 0.0669 7.3206 -6.4320 -0.1332 -13.5439 5.9397 11.5178 -27.3700 -18.2767 19.2381 21.6876 -4.0981 6.4484 14.7589 -0.0000 0.0000 0.0000 -64.4148 -25.7875 44.1049 56.7960 -55.3939 -31.6892 -0.0000 0.0000 -25.3482 28.9772 -12.9429 -7.0707 -7.1250 0.0000 -0.0000 1.1391 15.2624 -0.7992 -0.0000 0.0000 0.0000 75.1940 26.5457 46.7757 -52.1873 53.8405 -27.9307 0.0000 -0.0000 -22.2962 -19.6780 -21.6565 7.5182 7.1250 -0.0000 -0.0000 9.3728 -52.6042 -1.7666
13.5078 15.2530 -3.8602 -546.7920 209.1920 -179.5950 0.0000 0.0000 0.0000 -10.4871 -16.3301 -32.7136 10.5352 17.7000 61.2625 1.1381 -11.3041 -19.4808 0.3901 4.0105 11.1062 0.0000 0.0000 0.0000 10.5380 -12.4273 -35.3484 -14.7798 -19.3337 74.5726 -0.5821 -4.3323 -16.6426 -0.7845 5.6545 -15.7851 1.7749 0.9014 65.1007 -4.5727 0.3773 7.2342 -6.1795 -0.0094 -13.6116 5.7809 11.4610 -27.5409 -17.9459 19.1359 21.8084 -3.9640 6.4149 14.7564 -0.0000 0.0000 0.0000 -64.7967 -25.7830 43.9390 56.7845 -55.3904 -31.6798 -0.0000 0.0000 -25.1848 28.4494 -13.2015 -7.0537 -7.1250 0.0000 -0.0000 0.7546 15.0425 -0.5329 -0.0000 0.0000 0.0000 75.4295 26.8174 46.7987 -52.4815 53.9486 -28.1684 0.0000 -0.0000 -21.8233 -19.0126 -21.4554 7.1835 7.1250 -0.0000 -0.0000 9.9621 -52.2808 -1.8000
13.3998 15.2655 -3.8253 -546.5150 208.7730 -178.6700 0.0000 0.0000 0.0000 -10.1851 -16.3580 -33.7602 10.6120 17.7399 61.5150 1.1201 -11.9598 -19.4691 0.4445 4.2779 11.8600 0.0000 0.0000 0.0000 10.5426 -9.7556 -37.1865 -13.9228 -19.0905 71.9687 -0.6286 -3.1593 -16.4547 -0.9677 6.2631 -17.5498 1.1859 1.3872 63.4295 -4.4081 0.6138 7.4912 -5.8228 0.1070 -13.2798 5.6826 11.2930 -27.8124 -17.7001 18.8964 22.0214 -3.9099 6.3051 14.8172 0.0000 -0.0000 0.0000 -65.6018 -26.1617 44.0164 56.3351 -55.2515 -31.3102 -0.0000 0.0000 -24.6535 28.1126 -13.4432 -7.0798 -7.1250 0.0000 -0.0000 0.5031 14.8170 -0.3577 0.0000 -0.0000 0.0000 75.3594 27.1250 46.5816 -52.7974 54.0633 -28.4239 0.0000 -0.0000 -21.6033 -18.2533 -21.0136 6.7449 7.1250 -0.0000 -0.0000 10.5495 -51.7002 -1.7570
